<?xml version="1.0" standalone="no"?>
<!DOCTYPE svg PUBLIC "-//W3C//DTD SVG 20010904//EN"
 "http://www.w3.org/TR/2001/REC-SVG-20010904/DTD/svg10.dtd">
<svg version="1.0" xmlns="http://www.w3.org/2000/svg"
 width="512.000000pt" height="512.000000pt" viewBox="0 0 512.000000 512.000000"
 preserveAspectRatio="xMidYMid meet">
<metadata>
Created by potrace 1.14, written by Peter Selinger 2001-2017
</metadata>
<g transform="translate(0.000000,512.000000) scale(0.100000,-0.100000)"
fill="#000000" stroke="none">
<path d="M2540 4895 c-7 -8 -16 -15 -20 -15 -7 0 -190 -103 -230 -130 -8 -6
-22 -13 -30 -17 -8 -4 -55 -31 -104 -60 -49 -29 -90 -53 -92 -53 -4 0 -86 -48
-134 -79 -14 -8 -27 -16 -30 -16 -3 0 -41 -22 -85 -47 -44 -26 -332 -193 -639
-370 -308 -178 -561 -328 -562 -333 -3 -8 145 -94 495 -286 164 -90 186 -102
189 -105 2 -1 -15 -13 -37 -26 -40 -22 -41 -25 -41 -75 0 -58 -7 -63 -48 -34
-15 10 -30 19 -35 20 -4 0 -17 7 -30 14 -60 38 -587 327 -594 327 -6 0 -10
-2171 -4 -2251 0 -9 25 -29 54 -44 28 -16 144 -83 257 -148 113 -66 225 -131
250 -145 25 -14 142 -81 260 -150 229 -133 260 -151 330 -190 25 -14 126 -73
225 -130 99 -58 200 -116 225 -130 25 -14 114 -65 198 -114 84 -50 155 -88
158 -85 2 2 6 190 8 418 2 228 4 415 5 417 1 1 18 -9 40 -22 l38 -24 49 28 50
28 -3 -424 c-1 -233 1 -424 5 -424 4 1 24 11 44 23 54 33 380 221 398 230 8 4
36 20 61 35 25 15 110 64 190 110 79 46 151 88 159 93 31 19 356 205 370 212
8 4 31 17 50 28 42 25 330 193 380 221 19 11 64 37 100 58 36 21 81 47 100 58
86 48 99 58 102 72 6 24 3 2244 -2 2249 -3 3 -111 -55 -240 -129 -129 -73
-251 -142 -270 -152 -19 -10 -42 -22 -50 -27 -58 -36 -139 -81 -144 -81 -3 0
-6 26 -6 58 0 55 -1 58 -35 76 -19 11 -35 22 -35 25 0 4 17 15 38 26 20 11
106 59 191 108 85 48 155 87 157 87 1 0 37 20 78 45 42 25 78 45 80 45 3 0
134 77 143 84 2 2 -103 64 -162 96 -16 9 -117 67 -223 128 -106 62 -207 121
-225 131 -17 10 -189 109 -382 221 -192 111 -368 213 -390 225 -22 12 -80 46
-130 74 -49 29 -108 63 -130 76 -22 12 -94 54 -160 92 -170 99 -161 95 -175
78z"/>
</g>
</svg>
